<?xml version="1.0" encoding="UTF-8"?>
<!DOCTYPE svg PUBLIC "-//W3C//DTD SVG 1.1//EN" "http://www.w3.org/Graphics/SVG/1.1/DTD/svg11.dtd">
<svg version="1.2" width="147.6mm" height="147.6mm" viewBox="0 0 14760 14760" preserveAspectRatio="xMidYMid" fill-rule="evenodd" stroke-width="28.222" stroke-linejoin="round" xmlns="http://www.w3.org/2000/svg" xmlns:ooo="http://xml.openoffice.org/svg/export" xmlns:xlink="http://www.w3.org/1999/xlink" xmlns:presentation="http://sun.com/xmlns/staroffice/presentation" xmlns:smil="http://www.w3.org/2001/SMIL20/" xmlns:anim="urn:oasis:names:tc:opendocument:xmlns:animation:1.0" xml:space="preserve">
 <defs class="ClipPathGroup">
  <clipPath id="presentation_clip_path" clipPathUnits="userSpaceOnUse">
   <rect x="0" y="0" width="14760" height="14760"/>
  </clipPath>
  <clipPath id="presentation_clip_path_shrink" clipPathUnits="userSpaceOnUse">
   <rect x="14" y="14" width="14731" height="14731"/>
  </clipPath>
 </defs>
 <defs class="TextShapeIndex">
  <g ooo:slide="id1" ooo:id-list="id3 id4 id5 id6"/>
 </defs>
 <defs class="EmbeddedBulletChars">
  <g id="bullet-char-template-57356" transform="scale(0.00048828125,-0.00048828125)">
   <path d="M 580,1141 L 1163,571 580,0 -4,571 580,1141 Z"/>
  </g>
  <g id="bullet-char-template-57354" transform="scale(0.00048828125,-0.00048828125)">
   <path d="M 8,1128 L 1137,1128 1137,0 8,0 8,1128 Z"/>
  </g>
  <g id="bullet-char-template-10146" transform="scale(0.00048828125,-0.00048828125)">
   <path d="M 174,0 L 602,739 174,1481 1456,739 174,0 Z M 1358,739 L 309,1346 659,739 1358,739 Z"/>
  </g>
  <g id="bullet-char-template-10132" transform="scale(0.00048828125,-0.00048828125)">
   <path d="M 2015,739 L 1276,0 717,0 1260,543 174,543 174,936 1260,936 717,1481 1274,1481 2015,739 Z"/>
  </g>
  <g id="bullet-char-template-10007" transform="scale(0.00048828125,-0.00048828125)">
   <path d="M 0,-2 C -7,14 -16,27 -25,37 L 356,567 C 262,823 215,952 215,954 215,979 228,992 255,992 264,992 276,990 289,987 310,991 331,999 354,1012 L 381,999 492,748 772,1049 836,1024 860,1049 C 881,1039 901,1025 922,1006 886,937 835,863 770,784 769,783 710,716 594,584 L 774,223 C 774,196 753,168 711,139 L 727,119 C 717,90 699,76 672,76 641,76 570,178 457,381 L 164,-76 C 142,-110 111,-127 72,-127 30,-127 9,-110 8,-76 1,-67 -2,-52 -2,-32 -2,-23 -1,-13 0,-2 Z"/>
  </g>
  <g id="bullet-char-template-10004" transform="scale(0.00048828125,-0.00048828125)">
   <path d="M 285,-33 C 182,-33 111,30 74,156 52,228 41,333 41,471 41,549 55,616 82,672 116,743 169,778 240,778 293,778 328,747 346,684 L 369,508 C 377,444 397,411 428,410 L 1163,1116 C 1174,1127 1196,1133 1229,1133 1271,1133 1292,1118 1292,1087 L 1292,965 C 1292,929 1282,901 1262,881 L 442,47 C 390,-6 338,-33 285,-33 Z"/>
  </g>
  <g id="bullet-char-template-9679" transform="scale(0.00048828125,-0.00048828125)">
   <path d="M 813,0 C 632,0 489,54 383,161 276,268 223,411 223,592 223,773 276,916 383,1023 489,1130 632,1184 813,1184 992,1184 1136,1130 1245,1023 1353,916 1407,772 1407,592 1407,412 1353,268 1245,161 1136,54 992,0 813,0 Z"/>
  </g>
  <g id="bullet-char-template-8226" transform="scale(0.00048828125,-0.00048828125)">
   <path d="M 346,457 C 273,457 209,483 155,535 101,586 74,649 74,723 74,796 101,859 155,911 209,963 273,989 346,989 419,989 480,963 531,910 582,859 608,796 608,723 608,648 583,586 532,535 482,483 420,457 346,457 Z"/>
  </g>
  <g id="bullet-char-template-8211" transform="scale(0.00048828125,-0.00048828125)">
   <path d="M -4,459 L 1135,459 1135,606 -4,606 -4,459 Z"/>
  </g>
  <g id="bullet-char-template-61548" transform="scale(0.00048828125,-0.00048828125)">
   <path d="M 173,740 C 173,903 231,1043 346,1159 462,1274 601,1332 765,1332 928,1332 1067,1274 1183,1159 1299,1043 1357,903 1357,740 1357,577 1299,437 1183,322 1067,206 928,148 765,148 601,148 462,206 346,322 231,437 173,577 173,740 Z"/>
  </g>
 </defs>
 <g>
  <g id="id2" class="Master_Slide">
   <g id="bg-id2" class="Background"/>
   <g id="bo-id2" class="BackgroundObjects"/>
  </g>
 </g>
 <g class="SlideGroup">
  <g>
   <g id="container-id1">
    <g id="id1" class="Slide" clip-path="url(#presentation_clip_path)">
     <g class="Page">
      <g class="com.sun.star.drawing.ClosedBezierShape">
       <g id="id3">
        <rect class="BoundingBox" stroke="none" fill="none" x="2546" y="3480" width="4524" height="7686"/>
        <path fill="rgb(0,0,0)" stroke="none" d="M 3569,10897 C 3212,10649 3481,10023 3459,9559 3438,9095 3481,8579 3441,8111 3401,7644 3358,7178 3221,6757 3084,6335 2702,5874 2616,5584 2531,5294 2653,5110 2708,5016 2763,4921 2867,4909 2946,5016 3025,5123 3044,5388 3184,5657 3325,5926 3719,6653 3789,6628 3859,6604 3536,5996 3606,5510 3676,5025 4061,3980 4210,3715 4360,3449 4479,3718 4504,3916 4528,4115 4397,4619 4357,4906 4317,5193 4235,5379 4265,5639 4296,5898 4488,6558 4540,6463 4592,6369 4491,5538 4577,5071 4662,4603 4947,3861 5053,3660 5160,3458 5185,3440 5218,3861 5252,4283 5209,5966 5255,6188 5301,6411 5417,5529 5493,5199 5569,4869 5621,4384 5713,4209 5805,4035 5982,3999 6043,4154 6104,4310 6086,4701 6080,5144 6073,5587 6037,6454 6006,6811 5976,7169 5838,7328 5896,7288 5954,7248 6171,6732 6354,6573 6538,6414 6901,6253 6996,6335 7090,6418 6956,6781 6922,7068 6889,7355 6932,7650 6794,8056 6657,8463 6293,9171 6098,9504 5902,9837 5704,9797 5621,10054 5539,10310 5945,10903 5603,11043 5261,11184 3926,11144 3569,10897 Z"/>
        <path fill="none" stroke="rgb(255,255,255)" stroke-width="81" stroke-linejoin="miter" d="M 3569,10897 C 3212,10649 3481,10023 3459,9559 3438,9095 3481,8579 3441,8111 3401,7644 3358,7178 3221,6757 3084,6335 2702,5874 2616,5584 2531,5294 2653,5110 2708,5016 2763,4921 2867,4909 2946,5016 3025,5123 3044,5388 3184,5657 3325,5926 3719,6653 3789,6628 3859,6604 3536,5996 3606,5510 3676,5025 4061,3980 4210,3715 4360,3449 4479,3718 4504,3916 4528,4115 4397,4619 4357,4906 4317,5193 4235,5379 4265,5639 4296,5898 4488,6558 4540,6463 4592,6369 4491,5538 4577,5071 4662,4603 4947,3861 5053,3660 5160,3458 5185,3440 5218,3861 5252,4283 5209,5966 5255,6188 5301,6411 5417,5529 5493,5199 5569,4869 5621,4384 5713,4209 5805,4035 5982,3999 6043,4154 6104,4310 6086,4701 6080,5144 6073,5587 6037,6454 6006,6811 5976,7169 5838,7328 5896,7288 5954,7248 6171,6732 6354,6573 6538,6414 6901,6253 6996,6335 7090,6418 6956,6781 6922,7068 6889,7355 6932,7650 6794,8056 6657,8463 6293,9171 6098,9504 5902,9837 5704,9797 5621,10054 5539,10310 5945,10903 5603,11043 5261,11184 3926,11144 3569,10897 Z"/>
       </g>
      </g>
      <g class="com.sun.star.drawing.ClosedBezierShape">
       <g id="id4">
        <rect class="BoundingBox" stroke="none" fill="none" x="2547" y="3481" width="4522" height="7684"/>
        <path fill="none" stroke="rgb(255,255,255)" stroke-width="79" stroke-linejoin="round" d="M 3569,10897 C 3212,10649 3481,10023 3459,9559 3438,9095 3481,8579 3441,8111 3401,7644 3358,7178 3221,6757 3084,6335 2702,5874 2616,5584 2531,5294 2653,5110 2708,5016 2763,4921 2867,4909 2946,5016 3025,5123 3044,5388 3184,5657 3325,5926 3719,6653 3789,6628 3859,6604 3536,5996 3606,5510 3676,5025 4061,3980 4210,3715 4360,3449 4479,3718 4504,3916 4528,4115 4397,4619 4357,4906 4317,5193 4235,5379 4265,5639 4296,5898 4488,6558 4540,6463 4592,6369 4491,5538 4577,5071 4662,4603 4947,3861 5053,3660 5160,3458 5185,3440 5218,3861 5252,4283 5209,5966 5255,6188 5301,6411 5417,5529 5493,5199 5569,4869 5621,4384 5713,4209 5805,4035 5982,3999 6043,4154 6104,4310 6086,4701 6080,5144 6073,5587 6037,6454 6006,6811 5976,7169 5838,7328 5896,7288 5954,7248 6171,6732 6354,6573 6538,6414 6901,6253 6996,6335 7090,6418 6956,6781 6922,7068 6889,7355 6932,7650 6794,8056 6657,8463 6293,9171 6098,9504 5902,9837 5704,9797 5621,10054 5539,10310 5945,10903 5603,11043 5261,11184 3926,11144 3569,10897 Z"/>
       </g>
      </g>
      <g class="com.sun.star.drawing.ClosedBezierShape">
       <g id="id5">
        <rect class="BoundingBox" stroke="none" fill="none" x="7284" y="3272" width="4209" height="7822"/>
        <path fill="rgb(0,0,0)" stroke="none" d="M 11099,10457 C 11325,10185 10794,9935 10806,9413 10818,8890 11115,7751 11173,7325 11231,6897 11115,7141 11154,6848 11194,6555 11365,5898 11411,5565 11457,5233 11463,5037 11429,4851 11396,4665 11298,4460 11209,4448 11121,4435 10974,4487 10898,4777 10821,5068 10812,5904 10751,6188 10690,6472 10550,6625 10531,6482 10513,6338 10644,5630 10641,5327 10638,5025 10571,4900 10513,4668 10455,4435 10357,4130 10293,3935 10229,3739 10180,3538 10128,3495 10076,3452 10012,3538 9982,3678 9951,3819 9957,4124 9945,4338 9933,4552 9908,4747 9908,4961 9908,5175 9954,5422 9945,5620 9936,5819 9920,6405 9853,6152 9786,5898 9633,4545 9542,4100 9450,3654 9386,3586 9304,3477 9221,3367 9084,3192 9047,3440 9010,3687 9071,4454 9084,4961 9096,5468 9157,6482 9120,6482 9084,6482 8946,5367 8864,4961 8781,4555 8708,4191 8626,4045 8543,3898 8445,3898 8369,4081 8293,4264 8180,4793 8167,5144 8155,5495 8256,5782 8296,6188 8335,6595 8415,7492 8406,7580 8396,7669 8369,6952 8241,6720 8112,6488 7789,6247 7636,6188 7483,6130 7338,6234 7326,6372 7313,6509 7471,6723 7563,7013 7654,7303 7615,7608 7874,8111 8134,8615 8858,9547 9120,10036 9383,10524 9120,10973 9450,11043 9780,11114 10873,10729 11099,10457 Z"/>
        <path fill="none" stroke="rgb(255,255,255)" stroke-width="81" stroke-linejoin="miter" d="M 11099,10457 C 11325,10185 10794,9935 10806,9413 10818,8890 11115,7751 11173,7325 11231,6897 11115,7141 11154,6848 11194,6555 11365,5898 11411,5565 11457,5233 11463,5037 11429,4851 11396,4665 11298,4460 11209,4448 11121,4435 10974,4487 10898,4777 10821,5068 10812,5904 10751,6188 10690,6472 10550,6625 10531,6482 10513,6338 10644,5630 10641,5327 10638,5025 10571,4900 10513,4668 10455,4435 10357,4130 10293,3935 10229,3739 10180,3538 10128,3495 10076,3452 10012,3538 9982,3678 9951,3819 9957,4124 9945,4338 9933,4552 9908,4747 9908,4961 9908,5175 9954,5422 9945,5620 9936,5819 9920,6405 9853,6152 9786,5898 9633,4545 9542,4100 9450,3654 9386,3586 9304,3477 9221,3367 9084,3192 9047,3440 9010,3687 9071,4454 9084,4961 9096,5468 9157,6482 9120,6482 9084,6482 8946,5367 8864,4961 8781,4555 8708,4191 8626,4045 8543,3898 8445,3898 8369,4081 8293,4264 8180,4793 8167,5144 8155,5495 8256,5782 8296,6188 8335,6595 8415,7492 8406,7580 8396,7669 8369,6952 8241,6720 8112,6488 7789,6247 7636,6188 7483,6130 7338,6234 7326,6372 7313,6509 7471,6723 7563,7013 7654,7303 7615,7608 7874,8111 8134,8615 8858,9547 9120,10036 9383,10524 9120,10973 9450,11043 9780,11114 10873,10729 11099,10457 Z"/>
       </g>
      </g>
      <g class="com.sun.star.drawing.ClosedBezierShape">
       <g id="id6">
        <rect class="BoundingBox" stroke="none" fill="none" x="7285" y="3273" width="4207" height="7820"/>
        <path fill="none" stroke="rgb(255,255,255)" stroke-width="79" stroke-linejoin="round" d="M 11099,10457 C 11325,10185 10794,9935 10806,9413 10818,8890 11115,7751 11173,7325 11231,6897 11115,7141 11154,6848 11194,6555 11365,5898 11411,5565 11457,5233 11463,5037 11429,4851 11396,4665 11298,4460 11209,4448 11121,4435 10974,4487 10898,4777 10821,5068 10812,5904 10751,6188 10690,6472 10550,6625 10531,6482 10513,6338 10644,5630 10641,5327 10638,5025 10571,4900 10513,4668 10455,4435 10357,4130 10293,3935 10229,3739 10180,3538 10128,3495 10076,3452 10012,3538 9982,3678 9951,3819 9957,4124 9945,4338 9933,4552 9908,4747 9908,4961 9908,5175 9954,5422 9945,5620 9936,5819 9920,6405 9853,6152 9786,5898 9633,4545 9542,4100 9450,3654 9386,3586 9304,3477 9221,3367 9084,3192 9047,3440 9010,3687 9071,4454 9084,4961 9096,5468 9157,6482 9120,6482 9084,6482 8946,5367 8864,4961 8781,4555 8708,4191 8626,4045 8543,3898 8445,3898 8369,4081 8293,4264 8180,4793 8167,5144 8155,5495 8256,5782 8296,6188 8335,6595 8415,7492 8406,7580 8396,7669 8369,6952 8241,6720 8112,6488 7789,6247 7636,6188 7483,6130 7338,6234 7326,6372 7313,6509 7471,6723 7563,7013 7654,7303 7615,7608 7874,8111 8134,8615 8858,9547 9120,10036 9383,10524 9120,10973 9450,11043 9780,11114 10873,10729 11099,10457 Z"/>
       </g>
      </g>
     </g>
    </g>
   </g>
  </g>
 </g>
</svg>