<?xml version="1.0" encoding="UTF-8"?>
<!DOCTYPE svg PUBLIC "-//W3C//DTD SVG 1.1//EN" "http://www.w3.org/Graphics/SVG/1.1/DTD/svg11.dtd">
<svg version="1.2" width="147.6mm" height="147.6mm" viewBox="0 0 14760 14760" preserveAspectRatio="xMidYMid" fill-rule="evenodd" stroke-width="28.222" stroke-linejoin="round" xmlns="http://www.w3.org/2000/svg" xmlns:ooo="http://xml.openoffice.org/svg/export" xmlns:xlink="http://www.w3.org/1999/xlink" xmlns:presentation="http://sun.com/xmlns/staroffice/presentation" xmlns:smil="http://www.w3.org/2001/SMIL20/" xmlns:anim="urn:oasis:names:tc:opendocument:xmlns:animation:1.0" xml:space="preserve">
 <defs class="ClipPathGroup">
  <clipPath id="presentation_clip_path" clipPathUnits="userSpaceOnUse">
   <rect x="0" y="0" width="14760" height="14760"/>
  </clipPath>
  <clipPath id="presentation_clip_path_shrink" clipPathUnits="userSpaceOnUse">
   <rect x="14" y="14" width="14731" height="14731"/>
  </clipPath>
 </defs>
 <defs class="TextShapeIndex">
  <g ooo:slide="id1" ooo:id-list="id3 id4"/>
 </defs>
 <defs class="EmbeddedBulletChars">
  <g id="bullet-char-template-57356" transform="scale(0.00048828125,-0.00048828125)">
   <path d="M 580,1141 L 1163,571 580,0 -4,571 580,1141 Z"/>
  </g>
  <g id="bullet-char-template-57354" transform="scale(0.00048828125,-0.00048828125)">
   <path d="M 8,1128 L 1137,1128 1137,0 8,0 8,1128 Z"/>
  </g>
  <g id="bullet-char-template-10146" transform="scale(0.00048828125,-0.00048828125)">
   <path d="M 174,0 L 602,739 174,1481 1456,739 174,0 Z M 1358,739 L 309,1346 659,739 1358,739 Z"/>
  </g>
  <g id="bullet-char-template-10132" transform="scale(0.00048828125,-0.00048828125)">
   <path d="M 2015,739 L 1276,0 717,0 1260,543 174,543 174,936 1260,936 717,1481 1274,1481 2015,739 Z"/>
  </g>
  <g id="bullet-char-template-10007" transform="scale(0.00048828125,-0.00048828125)">
   <path d="M 0,-2 C -7,14 -16,27 -25,37 L 356,567 C 262,823 215,952 215,954 215,979 228,992 255,992 264,992 276,990 289,987 310,991 331,999 354,1012 L 381,999 492,748 772,1049 836,1024 860,1049 C 881,1039 901,1025 922,1006 886,937 835,863 770,784 769,783 710,716 594,584 L 774,223 C 774,196 753,168 711,139 L 727,119 C 717,90 699,76 672,76 641,76 570,178 457,381 L 164,-76 C 142,-110 111,-127 72,-127 30,-127 9,-110 8,-76 1,-67 -2,-52 -2,-32 -2,-23 -1,-13 0,-2 Z"/>
  </g>
  <g id="bullet-char-template-10004" transform="scale(0.00048828125,-0.00048828125)">
   <path d="M 285,-33 C 182,-33 111,30 74,156 52,228 41,333 41,471 41,549 55,616 82,672 116,743 169,778 240,778 293,778 328,747 346,684 L 369,508 C 377,444 397,411 428,410 L 1163,1116 C 1174,1127 1196,1133 1229,1133 1271,1133 1292,1118 1292,1087 L 1292,965 C 1292,929 1282,901 1262,881 L 442,47 C 390,-6 338,-33 285,-33 Z"/>
  </g>
  <g id="bullet-char-template-9679" transform="scale(0.00048828125,-0.00048828125)">
   <path d="M 813,0 C 632,0 489,54 383,161 276,268 223,411 223,592 223,773 276,916 383,1023 489,1130 632,1184 813,1184 992,1184 1136,1130 1245,1023 1353,916 1407,772 1407,592 1407,412 1353,268 1245,161 1136,54 992,0 813,0 Z"/>
  </g>
  <g id="bullet-char-template-8226" transform="scale(0.00048828125,-0.00048828125)">
   <path d="M 346,457 C 273,457 209,483 155,535 101,586 74,649 74,723 74,796 101,859 155,911 209,963 273,989 346,989 419,989 480,963 531,910 582,859 608,796 608,723 608,648 583,586 532,535 482,483 420,457 346,457 Z"/>
  </g>
  <g id="bullet-char-template-8211" transform="scale(0.00048828125,-0.00048828125)">
   <path d="M -4,459 L 1135,459 1135,606 -4,606 -4,459 Z"/>
  </g>
  <g id="bullet-char-template-61548" transform="scale(0.00048828125,-0.00048828125)">
   <path d="M 173,740 C 173,903 231,1043 346,1159 462,1274 601,1332 765,1332 928,1332 1067,1274 1183,1159 1299,1043 1357,903 1357,740 1357,577 1299,437 1183,322 1067,206 928,148 765,148 601,148 462,206 346,322 231,437 173,577 173,740 Z"/>
  </g>
 </defs>
 <g>
  <g id="id2" class="Master_Slide">
   <g id="bg-id2" class="Background"/>
   <g id="bo-id2" class="BackgroundObjects"/>
  </g>
 </g>
 <g class="SlideGroup">
  <g>
   <g id="container-id1">
    <g id="id1" class="Slide" clip-path="url(#presentation_clip_path)">
     <g class="Page">
      <g class="com.sun.star.drawing.ClosedBezierShape">
       <g id="id3">
        <rect class="BoundingBox" stroke="none" fill="none" x="2709" y="3709" width="4673" height="7700"/>
        <path fill="rgb(0,0,0)" stroke="none" d="M 4532,11279 C 4143,11086 4318,10427 4228,9971 4140,9515 4107,8998 3999,8541 3891,8085 3781,7629 3584,7233 3387,6835 2941,6435 2814,6161 2688,5886 2781,5686 2822,5585 2863,5483 2964,5456 3058,5551 3151,5645 3209,5904 3387,6150 3565,6396 4061,7057 4127,7022 4193,6988 3784,6434 3783,5943 3781,5453 4009,4363 4118,4079 4228,3794 4385,4043 4438,4235 4491,4428 4435,4946 4437,5236 4440,5526 4386,5722 4453,5974 4522,6226 4808,6851 4846,6750 4883,6649 4662,5842 4679,5367 4695,4892 4869,4116 4944,3902 5021,3686 5043,3665 5137,4076 5232,4489 5435,6160 5513,6373 5591,6587 5577,5698 5604,5360 5631,5022 5612,4535 5677,4349 5743,4163 5913,4102 5996,4246 6079,4391 6118,4781 6177,5220 6234,5659 6325,6522 6347,6880 6369,7238 6256,7416 6308,7368 6359,7320 6498,6778 6656,6594 6815,6410 7151,6197 7257,6265 7362,6333 7282,6712 7290,7001 7300,7289 7385,7576 7308,7998 7232,8420 6975,9174 6831,9532 6686,9890 6484,9879 6439,10145 6395,10411 6884,10938 6566,11126 6248,11316 4921,11471 4532,11279 Z"/>
        <path fill="none" stroke="rgb(255,255,255)" stroke-width="81" stroke-linejoin="miter" d="M 4532,11279 C 4143,11086 4318,10427 4228,9971 4140,9515 4107,8998 3999,8541 3891,8085 3781,7629 3584,7233 3387,6835 2941,6435 2814,6161 2688,5886 2781,5686 2822,5585 2863,5483 2964,5456 3058,5551 3151,5645 3209,5904 3387,6150 3565,6396 4061,7057 4127,7022 4193,6988 3784,6434 3783,5943 3781,5453 4009,4363 4118,4079 4228,3794 4385,4043 4438,4235 4491,4428 4435,4946 4437,5236 4440,5526 4386,5722 4453,5974 4522,6226 4808,6851 4846,6750 4883,6649 4662,5842 4679,5367 4695,4892 4869,4116 4944,3902 5021,3686 5043,3665 5137,4076 5232,4489 5435,6160 5513,6373 5591,6587 5577,5698 5604,5360 5631,5022 5612,4535 5677,4349 5743,4163 5913,4102 5996,4246 6079,4391 6118,4781 6177,5220 6234,5659 6325,6522 6347,6880 6369,7238 6256,7416 6308,7368 6359,7320 6498,6778 6656,6594 6815,6410 7151,6197 7257,6265 7362,6333 7282,6712 7290,7001 7300,7289 7385,7576 7308,7998 7232,8420 6975,9174 6831,9532 6686,9890 6484,9879 6439,10145 6395,10411 6884,10938 6566,11126 6248,11316 4921,11471 4532,11279 Z"/>
       </g>
      </g>
      <g class="com.sun.star.drawing.ClosedBezierShape">
       <g id="id4">
        <rect class="BoundingBox" stroke="none" fill="none" x="7404" y="3459" width="4388" height="7800"/>
        <path fill="rgb(0,0,0)" stroke="none" d="M 10492,10874 C 10760,10644 10279,10309 10378,9796 10477,9283 10958,8209 11086,7797 11215,7385 11060,7606 11147,7324 11235,7041 11513,6422 11614,6101 11714,5782 11753,5589 11750,5400 11748,5211 11686,4993 11600,4966 11515,4939 11363,4966 11240,5239 11115,5513 10967,6336 10860,6606 10753,6876 10589,7004 10594,6859 10601,6714 10847,6038 10895,5739 10942,5440 10897,5306 10878,5068 10860,4828 10814,4511 10783,4308 10753,4104 10738,3898 10694,3847 10649,3796 10572,3870 10519,4003 10465,4137 10420,4439 10373,4648 10326,4857 10268,5045 10233,5256 10197,5467 10202,5718 10160,5912 10118,6107 10005,6682 9981,6421 9957,6160 10031,4800 10015,4346 9999,3891 9947,3813 9884,3692 9820,3570 9714,3375 9637,3613 9559,3850 9492,4617 9420,5119 9348,5621 9239,6631 9203,6625 9167,6619 9217,5496 9203,5082 9189,4668 9178,4297 9121,4140 9064,3981 8967,3965 8862,4132 8756,4300 8557,4803 8486,5147 8415,5491 8467,5791 8439,6198 8410,6606 8340,7504 8316,7590 8292,7676 8384,6963 8297,6713 8208,6463 7930,6172 7788,6088 7647,6006 7486,6084 7451,6218 7416,6351 7537,6588 7579,6890 7621,7191 7532,7486 7703,8025 7876,8565 8435,9605 8612,10130 8790,10655 8456,11054 8770,11178 9084,11303 10225,11105 10492,10874 Z"/>
        <path fill="none" stroke="rgb(255,255,255)" stroke-width="81" stroke-linejoin="miter" d="M 10492,10874 C 10760,10644 10279,10309 10378,9796 10477,9283 10958,8209 11086,7797 11215,7385 11060,7606 11147,7324 11235,7041 11513,6422 11614,6101 11714,5782 11753,5589 11750,5400 11748,5211 11686,4993 11600,4966 11515,4939 11363,4966 11240,5239 11115,5513 10967,6336 10860,6606 10753,6876 10589,7004 10594,6859 10601,6714 10847,6038 10895,5739 10942,5440 10897,5306 10878,5068 10860,4828 10814,4511 10783,4308 10753,4104 10738,3898 10694,3847 10649,3796 10572,3870 10519,4003 10465,4137 10420,4439 10373,4648 10326,4857 10268,5045 10233,5256 10197,5467 10202,5718 10160,5912 10118,6107 10005,6682 9981,6421 9957,6160 10031,4800 10015,4346 9999,3891 9947,3813 9884,3692 9820,3570 9714,3375 9637,3613 9559,3850 9492,4617 9420,5119 9348,5621 9239,6631 9203,6625 9167,6619 9217,5496 9203,5082 9189,4668 9178,4297 9121,4140 9064,3981 8967,3965 8862,4132 8756,4300 8557,4803 8486,5147 8415,5491 8467,5791 8439,6198 8410,6606 8340,7504 8316,7590 8292,7676 8384,6963 8297,6713 8208,6463 7930,6172 7788,6088 7647,6006 7486,6084 7451,6218 7416,6351 7537,6588 7579,6890 7621,7191 7532,7486 7703,8025 7876,8565 8435,9605 8612,10130 8790,10655 8456,11054 8770,11178 9084,11303 10225,11105 10492,10874 Z"/>
       </g>
      </g>
     </g>
    </g>
   </g>
  </g>
 </g>
</svg>